<!-- SVG files are written in HTML, so I can comment on the same way -->
<!-- SVG files are basically functions, so when resizing the screen for example the image will keep beautiful -->
<!-- I took this SVG file from "https://icons8.com/" -->
<svg version="1.0" xmlns="http://www.w3.org/2000/svg"
 width="32.000000pt" height="32.000000pt" viewBox="0 0 64.000000 64.000000"
 preserveAspectRatio="xMidYMid meet">
<g transform="translate(0.000000,64.000000) scale(0.100000,-0.100000)"
fill="#000000" stroke="none">
<path d="M545 620 c-4 -6 1 -22 10 -37 17 -25 17 -26 -41 -84 -39 -39 -62 -55
-68 -49 -7 7 6 27 39 60 39 39 47 52 37 62 -10 10 -29 -5 -92 -67 -44 -44 -80
-85 -80 -91 0 -6 7 -17 15 -24 18 -15 20 -40 4 -40 -7 0 -17 7 -24 17 -7 9
-19 14 -27 10 -17 -6 -55 -94 -45 -103 3 -3 26 1 50 11 32 12 79 52 177 150
l134 134 -29 31 c-30 31 -49 37 -60 20z"/>
<path d="M50 590 c-19 -19 -20 -33 -20 -270 0 -315 -16 -290 185 -290 122 0
145 2 145 15 0 13 -22 15 -138 15 -94 0 -142 4 -150 12 -17 17 -17 479 0 496
8 8 62 12 175 12 138 0 163 2 163 15 0 13 -26 15 -170 15 -157 0 -172 -2 -190
-20z"/>
<path d="M580 335 l0 -125 -55 0 c-77 0 -95 -19 -95 -104 0 -37 5 -68 11 -72
6 -4 45 28 90 72 l79 79 0 137 c0 116 -2 138 -15 138 -13 0 -15 -21 -15 -125z
m-70 -201 l-45 -45 -3 31 c-4 42 13 60 56 60 l36 0 -44 -46z"/>
</g>
</svg>
